<svg width="20" height="21" viewBox="0 0 20 21" fill="none" xmlns="http://www.w3.org/2000/svg">
<path d="M15.2654 8.92678L15.2154 8.92673V8.92658V8.92633V8.92598V8.92552V8.92497V8.92432V8.92358V8.92273V8.92178V8.92074V8.9196V8.91836V8.91703V8.9156V8.91407V8.91245V8.91073V8.90891V8.907V8.905V8.9029V8.90071V8.89842V8.89604V8.89356V8.891V8.88834V8.88558V8.88274V8.8798V8.87678V8.87366V8.87045V8.86715V8.86376V8.86027V8.8567V8.85304V8.8493V8.84546V8.84153V8.83752V8.83342V8.82923V8.82495V8.82059V8.81614V8.8116V8.80698V8.80227V8.79747V8.7926V8.78763V8.78258V8.77745V8.77223V8.76693V8.76155V8.75608V8.75054V8.7449V8.73919V8.7334V8.72752V8.72156V8.71552V8.7094V8.7032V8.69692V8.69057V8.68413V8.67761V8.67101V8.66434V8.65759V8.65076V8.64385V8.63686V8.6298V8.62266V8.61545V8.60815V8.60079V8.59335V8.58583V8.57824V8.57057V8.56283V8.55501V8.54713V8.53916V8.53113V8.52302V8.51484V8.50659V8.49827V8.48987V8.48141V8.47287V8.46426V8.45558V8.44684V8.43802V8.42913V8.42018V8.41115V8.40206V8.3929V8.38367V8.37438V8.36501V8.35558V8.34609V8.33652V8.32689V8.3172V8.30744V8.29761V8.28772V8.27777V8.26775V8.25767V8.24752V8.23731V8.22704V8.21671V8.20631V8.19585V8.18533V8.17475V8.1641V8.1534V8.14263V8.13181V8.12092V8.10998V8.09898V8.08791V8.07679V8.06561V8.05437V8.04308V8.03172V8.02031V8.00885V7.99732V7.98574V7.9741V7.96241V7.95067V7.93886V7.92701V7.91509V7.90313V7.89111V7.87904V7.86691V7.85473V7.8425V7.83022V7.81788V7.80549V7.79305V7.78056V7.76802V7.75543V7.74279V7.7301V7.71735V7.70456V7.69172V7.67884V7.6659V7.65291V7.63988V7.6268V7.61367V7.6005V7.58728V7.57401V7.5607V7.54734V7.53394V7.52049V7.507V7.49346V7.47988V7.46625V7.45258V7.43887V7.42511V7.41131V7.39747V7.38359V7.36967V7.3557V7.3417V7.32765V7.31356V7.29943V7.28526V7.27106V7.25681V7.24252V7.2282V7.21384V7.19944V7.185V7.17052V7.15601V7.14146V7.12687V7.11225V7.09759V7.0829V7.06817V7.0534V7.0386V7.02377V7.0089V6.994V6.97907V6.9641V6.9491V6.93406V6.919V6.9039V6.88877V6.87361V6.85842V6.84319V6.82794V6.81266V6.79734V6.782V6.76663V6.75123V6.7358V6.72034V6.70485V6.68934V6.6738V6.65823V6.64263V6.62701V6.61136V6.59569V6.57999V6.56427V6.54852V6.53274V6.51694V6.50112V6.48527V6.4694V6.45351V6.43759V6.42165V6.40569V6.38971V6.37371V6.35768V6.34163V6.32556V6.30948V6.29337V6.27724V6.26109V6.24493V6.22874V6.21253V6.19631V6.18007V6.16381V6.14754V6.13124V6.11493V6.09861V6.08226V6.06591V6.04953V6.03314V6.01674V6.00032V5.98389V5.96744V5.95098V5.9345V5.91802V5.90152V5.885V5.86848V5.85194V5.83539V5.81883V5.80226V5.78568V5.76908V5.75248V5.73587V5.71925V5.70262V5.68598V5.66933V5.65267V5.63601V5.61933V5.60265V5.58597V5.56927V5.55257V5.53587V5.51915V5.50244V5.48571V5.46898V5.45225V5.43551V5.41877V5.40203V5.38528V5.36853V5.35177V5.33502V5.31826V5.3015V5.28474V5.26797V5.25121V5.23444V5.21767V5.20091V5.18414V5.16738V5.15061V5.13385V5.11709V5.10033V5.08357V5.06681V5.05006V5.03331V5.01656V4.99982V4.98308V4.96634V4.94961V4.93289V4.91616V4.89945V4.88274V4.86603V4.84934V4.83264V4.81596V4.79928V4.78261V4.76595V4.7493V4.73265V4.71601V4.69939V4.68277V4.66616V4.64956V4.63297V4.61639V4.59982V4.58327V4.56672V4.55019V4.53367V4.51716V4.50066V4.48418V4.46771V4.45126V4.43481V4.41839V4.40197V4.38557V4.36919V4.35282V4.33647V4.32013V4.30381V4.28751V4.27122V4.25495V4.2387V4.22246V4.20625V4.19005V4.17387V4.15771V4.14157V4.12545V4.10935V4.09326V4.0772V4.06116V4.04515V4.02915V4.01317V3.99722V3.98129V3.96538V3.9495V3.93364V3.9178V3.90198V3.88619V3.87043V3.85469V3.83897V3.82328V3.80762V3.79198V3.77636V3.76078V3.74522V3.72969V3.71418V3.69871V3.68326V3.66784V3.65245V3.63709V3.62176V3.60645V3.59118V3.57594V3.56073V3.54554V3.53039V3.51528V3.50019V3.48513V3.47011V3.45512V3.44017V3.42524V3.41035V3.3955V3.38068V3.36589V3.35114V3.33642V3.32174V3.30709V3.29248V3.27791V3.26337V3.24887V3.23441V3.21998V3.2056V3.19125V3.17694V3.16267V3.14843V3.13424V3.12009V3.10597V3.0919V3.07787V3.06387V3.04992V3.03601V3.02215V3.00832V2.99454V2.9808V2.9671V2.95345V2.93984V2.92627V2.91275V2.89927V2.88584V2.87245V2.85911V2.84581V2.83256V2.81936V2.8062V2.79309V2.78003V2.76701V2.75404V2.74112V2.72825V2.71543V2.70266V2.68993V2.67726V2.66464V2.65206V2.63954V2.62707V2.61465V2.60228V2.58996V2.57769V2.56548V2.55332V2.54121V2.52916V2.51716V2.50521V2.49332C15.2154 2.24591 15.0148 2.04539 14.7677 2.04539H5.99247C5.74896 2.04539 5.54992 2.24011 5.54476 2.48386C5.53497 2.95265 5.52302 3.51295 5.51298 3.98172C5.51298 3.98173 5.51298 3.98173 5.51298 3.98174L5.463 3.98067C5.44579 4.79303 4.78252 5.44245 3.97015 5.44245H2.49332C2.37696 5.44245 2.26992 5.48235 2.18534 5.54925L15.2654 8.92678ZM15.2654 8.92678H15.2154C15.2154 9.22915 15.4609 9.47471 15.7631 9.47471C16.0655 9.47471 16.311 9.22916 16.311 8.92678V2.49332C16.311 1.64091 15.6199 0.95 14.7677 0.95H5.99247C5.50632 0.95 5.07191 1.1749 4.78887 1.52715C4.76096 1.54619 4.73491 1.56756 4.71073 1.59124L4.71062 1.59135L1.48188 4.77447C1.15624 5.05735 0.95 5.47474 0.95 5.94014V5.95653V5.97304V5.98966V6.00639V6.02324V6.04021V6.05728V6.07447V6.09178V6.10919V6.12672V6.14436V6.1621V6.17996V6.19793V6.21601V6.23419V6.25249V6.27089V6.2894V6.30802V6.32674V6.34557V6.36451V6.38355V6.40269V6.42194V6.44129V6.46075V6.48031V6.49997V6.51974V6.5396V6.55957V6.57964V6.5998V6.62007V6.64044V6.66091V6.68147V6.70213V6.72289V6.74375V6.7647V6.78575V6.8069V6.82814V6.84947V6.8709V6.89242V6.91404V6.93575V6.95755V6.97945V7.00143V7.02351V7.04568V7.06794V7.09028V7.11272V7.13525V7.15786V7.18056V7.20335V7.22623V7.24919V7.27224V7.29538V7.3186V7.34191V7.3653V7.38877V7.41233V7.43597V7.45969V7.4835V7.50738V7.53135V7.5554V7.57953V7.60373V7.62802V7.65239V7.67683V7.70136V7.72596V7.75064V7.77539V7.80022V7.82513V7.85011V7.87517V7.9003V7.9255V7.95078V7.97613V8.00156V8.02705V8.05262V8.07826V8.10397V8.12975V8.1556V8.18152V8.2075V8.23356V8.25969V8.28588V8.31214V8.33846V8.36485V8.39131V8.41784V8.44442V8.47108V8.49779V8.52457V8.55141V8.57832V8.60529V8.63232V8.65941V8.68656V8.71377V8.74104V8.76837V8.79576V8.82321V8.85072V8.87828V8.9059V8.93358V8.96131V8.9891V9.01695V9.04485V9.0728V9.10081V9.12887V9.15699V9.18516V9.21338V9.24165V9.26997V9.29834V9.32677V9.35524V9.38376V9.41234V9.44096V9.46962V9.49834V9.5271V9.55591V9.58477V9.61367V9.64262V9.67161V9.70065V9.72973V9.75885V9.78802V9.81723V9.84648V9.87578V9.90511V9.93449V9.96391V9.99336V10.0229V10.0524V10.082V10.1116V10.1412V10.1709V10.2006V10.2304V10.2602V10.29V10.3199V10.3498V10.3797V10.4097V10.4397V10.4697V10.4998V10.5299V10.56V10.5902V10.6204V10.6506V10.6808V10.7111V10.7414V10.7717V10.8021V10.8325V10.8629V10.8934V10.9238V10.9543V10.9848V11.0154V11.046V11.0765V11.1072V11.1378V11.1685V11.1991V11.2298V11.2606V11.2913V11.3221V11.3528V11.3837V11.4145V11.4453V11.4762V11.507V11.5379V11.5688V11.5998V11.6307V11.6617V11.6926V11.7236V11.7546V11.7856V11.8166V11.8477V11.8787V11.9098V11.9408V11.9719V12.003V12.0341V12.0652V12.0963V12.1274V12.1586V12.1897V12.2208V12.252V12.2832V12.3143V12.3455V12.3767V12.4078V12.439V12.4702V12.5014V12.5326V12.5638V12.5949V12.6261V12.6573V12.6885V12.7197V12.7509V12.7821V12.8133V12.8445V12.8757V12.9068V12.938V12.9692V13.0003V13.0315V13.0627V13.0938V13.125V13.1561V13.1872V13.2184V13.2495V13.2806V13.3117V13.3428V13.3738V13.4049V13.436V13.467V13.498V13.5291V13.5601V13.5911V13.622V13.653V13.684V13.7149V13.7458V13.7767V13.8076V13.8385V13.8694V13.9002V13.931V13.9618V13.9926V14.0234V14.0541V14.0848V14.1155V14.1462V14.1769V14.2075V14.2381V14.2687V14.2993V14.3298V14.3603V14.3908V14.4213V14.4517V14.4822V14.5126V14.5429V14.5732V14.6036V14.6338V14.6641V14.6943V14.7245V14.7547V14.7848V14.8149V14.8449V14.875V14.905V14.9349V14.9649V14.9948V15.0246V15.0545V15.0843V15.114V15.1437V15.1734V15.2031V15.2327V15.2623V15.2918V15.3213V15.3508V15.3802V15.4095V15.4389V15.4682V15.4974V15.5266V15.5558V15.5849V15.614V15.6431V15.672V15.701V15.7299V15.7587V15.7876V15.8163V15.845V15.8737V15.9023V15.9309V15.9594V15.9879V16.0163V16.0447V16.073V16.1013V16.1295V16.1577V16.1858V16.2139V16.2419V16.2698V16.2977V16.3256V16.3533V16.3811V16.4088V16.4364V16.4639V16.4915V16.5189V16.5463V16.5736V16.6009V16.6281V16.6553V16.6823V16.7094V16.7363V16.7632V16.7901V16.8169V16.8436V16.8702V16.8968V16.9234V16.9498V16.9762V17.0025V17.0288V17.055V17.0811V17.1072V17.1331V17.1591V17.1849V17.2107V17.2364V17.262V17.2876V17.3131V17.3385V17.3639V17.3892V17.4144V17.4395V17.4646V17.4895V17.5144V17.5393V17.564V17.5887V17.6133V17.6378V17.6623V17.6866V17.7109V17.7351V17.7593V17.7833V17.8073V17.8312V17.855V17.8787V17.9023V17.9259V17.9494V17.9728V17.9961V18.0193V18.0424V18.0655V18.0884V18.1113V18.1341V18.1568V18.1794V18.2019V18.2244V18.2467V18.269V18.2912V18.3132V18.3352V18.3571V18.3789V18.4006V18.4222V18.4438V18.4652V18.4865V18.5078V18.5289V18.55V18.5709V18.5918V18.6125V18.6332V18.6538V18.6742V18.6946V18.7149V18.735V18.7551V18.7751V18.7949V18.8147V18.8344V18.8539V18.8734V18.8927V18.912V18.9311V18.9502V18.9691V18.9879V19.0066V19.0253V19.0438V19.0622V19.0805V19.0987V19.1167V19.1347V19.1526V19.1703V19.1879V19.2055V19.2229V19.2402V19.2574V19.2745V19.2914V19.3083V19.325V19.3416V19.3581V19.3745C0.95 20.2269 1.64092 20.9178 2.49332 20.9178H10.9575C11.2599 20.9178 11.5051 20.6723 11.5051 20.3701C11.5051 20.0678 11.2599 19.8222 10.9575 19.8222H2.49332C2.24616 19.8222 2.04563 19.6217 2.04563 19.3745V5.94014C2.04563 5.81352 2.09818 5.69926 2.1826 5.61783C2.19466 5.60828 2.20657 5.59803 2.21812 5.58708L15.2654 8.92678ZM14.4081 18.2234C15.2639 18.2234 16.056 17.9479 16.7004 17.4807L18.9 19.6806C19.1138 19.8944 19.4611 19.8944 19.6749 19.6806C19.8886 19.4668 19.8886 19.1198 19.6749 18.906L17.4893 16.7204C18.0089 16.0563 18.319 15.2205 18.319 14.3128C18.319 12.1544 16.5665 10.4019 14.4081 10.4019C12.2497 10.4019 10.4972 12.1544 10.4972 14.3128C10.4972 16.4712 12.2497 18.2234 14.4081 18.2234ZM14.4081 11.4975C15.962 11.4975 17.2234 12.7589 17.2234 14.3128C17.2234 15.8664 15.962 17.128 14.4081 17.128C12.8542 17.128 11.5928 15.8664 11.5928 14.3128C11.5928 12.7589 12.8542 11.4975 14.4081 11.4975ZM5.21833 14.4715H8.71652C9.01889 14.4715 9.26445 14.2259 9.26445 13.9238C9.26445 13.6214 9.01891 13.3759 8.71652 13.3759H5.21833C4.91617 13.3759 4.67064 13.6214 4.67064 13.9238C4.67064 14.2259 4.91618 14.4715 5.21833 14.4715ZM5.21833 11.4836H8.71652C9.01887 11.4836 9.26445 11.2384 9.26445 10.936C9.26445 10.6335 9.01887 10.3883 8.71652 10.3883H5.21833C4.9162 10.3883 4.67064 10.6336 4.67064 10.936C4.67064 11.2384 4.9162 11.4836 5.21833 11.4836ZM5.21833 8.49175H12.215C12.5171 8.49175 12.7626 8.24646 12.7626 7.94406C12.7626 7.64166 12.5171 7.39636 12.215 7.39636H5.21833C4.9162 7.39636 4.67064 7.64166 4.67064 7.94406C4.67064 8.24646 4.9162 8.49175 5.21833 8.49175ZM3.97015 4.39682H3.42524L4.42938 3.40692L4.41786 3.95858C4.4127 4.20208 4.21368 4.39682 3.97015 4.39682Z" fill="white" stroke="white" stroke-width="0.1"/>
</svg>
