<svg xmlns="http://www.w3.org/2000/svg" width="24" height="23" viewBox="0 0 24 23" fill="none">
<mask id="path-1-outside-1_2481_1159" maskUnits="userSpaceOnUse" x="0" y="9.92773" width="24" height="13" fill="white">
<rect fill="white" y="9.92773" width="24" height="13"/>
<path d="M22.6692 14.9325H22.1104C22.0254 14.9325 21.9904 14.8718 21.9792 14.8458C21.9682 14.8196 21.9488 14.7525 22.0081 14.6913L22.3966 14.2895C22.5877 14.0919 22.6907 13.8318 22.6861 13.5568C22.6815 13.2819 22.5703 13.0253 22.3727 12.834L21.6515 12.1362C21.2434 11.7417 20.5902 11.7525 20.1959 12.1603L19.9382 12.4265C19.8779 12.4887 19.8091 12.4702 19.7827 12.4594C19.7559 12.4486 19.6937 12.4141 19.6937 12.3275V11.957C19.6937 11.3894 19.2318 10.9277 18.6642 10.9277H17.6608C17.0933 10.9277 16.6314 11.3894 16.6314 11.957V12.516C16.6314 12.601 16.5706 12.636 16.5444 12.647C16.5185 12.658 16.4511 12.6774 16.3901 12.6183L15.9883 12.2296C15.7907 12.0383 15.5312 11.9374 15.2556 11.9401C14.9807 11.9447 14.7238 12.0559 14.5327 12.2537L13.849 12.9603C13.8429 12.9555 13.8392 12.9489 13.8325 12.9448C12.5044 12.1187 10.972 11.6822 9.40083 11.6822C4.76855 11.6822 1 15.4508 1 20.083C1 20.2007 1.09537 20.296 1.21297 20.296C1.33058 20.296 1.42595 20.2008 1.42595 20.083C1.42595 15.6856 5.0035 12.1081 9.40086 12.1081C10.8924 12.1081 12.347 12.5226 13.6075 13.3066C13.6107 13.3086 13.6145 13.3086 13.6178 13.3104C13.5682 13.4351 13.5433 13.5694 13.5456 13.7076C13.5501 13.9825 13.6616 14.2392 13.8592 14.4303L14.1254 14.688C14.1875 14.7481 14.169 14.8169 14.1582 14.8435C14.1474 14.8703 14.1129 14.9325 14.0262 14.9325H13.6558C13.0883 14.9325 12.6266 15.3944 12.6266 15.9619V16.9654C12.6266 17.5329 13.0883 17.9948 13.6558 17.9948H14.2148C14.2999 17.9948 14.3348 18.0555 14.3458 18.0817C14.3569 18.1077 14.3762 18.1751 14.3171 18.2363L13.9285 18.6378C13.7373 18.8354 13.6344 19.0956 13.639 19.3705C13.6435 19.6454 13.7548 19.9021 13.9524 20.0934L14.6736 20.7912C14.8712 20.9823 15.1395 21.0875 15.4063 21.0807C15.6814 21.0761 15.9381 20.9648 16.1292 20.7672L16.3868 20.501C16.4469 20.4389 16.516 20.4574 16.5424 20.468C16.5692 20.4788 16.6314 20.5133 16.6314 20.6V20.9704C16.6314 21.538 17.0933 21.9999 17.6608 21.9999H18.6642C19.2318 21.9999 19.6937 21.538 19.6937 20.9704V20.4116C19.6937 20.3266 19.7544 20.2916 19.7804 20.2806C19.8062 20.2694 19.8736 20.2505 19.9351 20.3093L20.3367 20.6978C20.5343 20.8889 20.7893 21.0012 21.0694 20.9873C21.3443 20.9827 21.6009 20.8715 21.7923 20.6739L22.49 19.9526C22.6811 19.7551 22.7841 19.4949 22.7795 19.22C22.7749 18.945 22.6637 18.6884 22.4661 18.4971L22.1999 18.2396C22.1375 18.1793 22.156 18.1107 22.1668 18.0838C22.1776 18.057 22.2122 17.9948 22.2989 17.9948H22.6693C23.2368 17.9948 23.6987 17.533 23.6987 16.9654V15.962C23.6987 15.3944 23.2368 14.9325 22.6692 14.9325ZM23.2728 16.9654C23.2728 17.2982 23.002 17.569 22.6692 17.569H22.2988C22.0661 17.569 21.8592 17.7083 21.7721 17.9242C21.6847 18.1401 21.7365 18.384 21.9037 18.5458L22.1699 18.8033C22.2857 18.9154 22.351 19.0659 22.3535 19.2271C22.3562 19.3881 22.2959 19.5407 22.1838 19.6566L21.4861 20.3778C21.374 20.4936 21.2234 20.559 21.0622 20.5614C20.8984 20.5675 20.7484 20.5038 20.6328 20.3917L20.2312 20.0033C20.064 19.8417 19.8274 19.7982 19.614 19.8885C19.4004 19.9791 19.2677 20.1796 19.2677 20.4117V20.9705C19.2677 21.3033 18.997 21.5741 18.6642 21.5741H17.6608C17.328 21.5741 17.0573 21.3033 17.0573 20.9705V20.6001C17.0573 20.3674 16.9179 20.1605 16.702 20.0734C16.6326 20.0451 16.56 20.0313 16.488 20.0313C16.3375 20.0313 16.1902 20.0916 16.0806 20.205L15.823 20.4712C15.7109 20.587 15.5605 20.6523 15.3994 20.6548C15.3958 20.655 15.3925 20.655 15.3892 20.655C15.2318 20.655 15.083 20.5949 14.9697 20.4851L14.2485 19.7874C14.1326 19.6753 14.0673 19.5247 14.0648 19.3635C14.0621 19.2026 14.1225 19.0499 14.2345 18.9341L14.6232 18.5325C14.7846 18.3657 14.8285 18.1292 14.738 17.9156C14.6473 17.7019 14.4469 17.569 14.2148 17.569H13.6557C13.323 17.569 13.0524 17.2982 13.0524 16.9654V15.962C13.0524 15.6292 13.323 15.3584 13.6557 15.3584H14.0261C14.2588 15.3584 14.4655 15.2191 14.5529 15.0034C14.6403 14.7878 14.5887 14.5438 14.4215 14.3818L14.1553 14.1241C14.0392 14.012 13.9741 13.8617 13.9714 13.7005C13.9687 13.5394 14.029 13.3867 14.1411 13.2709L14.8388 12.5498C14.951 12.434 15.1015 12.3687 15.2627 12.366C15.4226 12.3535 15.5763 12.4236 15.6921 12.5357L16.0939 12.9243C16.2607 13.0859 16.4974 13.1296 16.7108 13.0391C16.9246 12.9485 17.0573 12.748 17.0573 12.5159V11.9569C17.0573 11.6242 17.328 11.3536 17.6608 11.3536H18.6642C18.997 11.3536 19.2677 11.6242 19.2677 11.9569V12.3274C19.2677 12.5602 19.4071 12.7669 19.6229 12.8542C19.839 12.9413 20.0828 12.8894 20.2443 12.7226L20.502 12.4564C20.7333 12.217 21.1163 12.211 21.3553 12.4422L22.0765 13.14C22.1924 13.2521 22.2577 13.4026 22.2602 13.5638C22.2629 13.7248 22.2025 13.8774 22.0905 13.9933L21.702 14.3951C21.5406 14.5618 21.4965 14.7981 21.5872 15.0119C21.6776 15.2257 21.8783 15.3584 22.1104 15.3584H22.6692C23.002 15.3584 23.2728 15.6292 23.2728 15.9619V16.9654Z"/>
</mask>
<path d="M22.6692 14.9325H22.1104C22.0254 14.9325 21.9904 14.8718 21.9792 14.8458C21.9682 14.8196 21.9488 14.7525 22.0081 14.6913L22.3966 14.2895C22.5877 14.0919 22.6907 13.8318 22.6861 13.5568C22.6815 13.2819 22.5703 13.0253 22.3727 12.834L21.6515 12.1362C21.2434 11.7417 20.5902 11.7525 20.1959 12.1603L19.9382 12.4265C19.8779 12.4887 19.8091 12.4702 19.7827 12.4594C19.7559 12.4486 19.6937 12.4141 19.6937 12.3275V11.957C19.6937 11.3894 19.2318 10.9277 18.6642 10.9277H17.6608C17.0933 10.9277 16.6314 11.3894 16.6314 11.957V12.516C16.6314 12.601 16.5706 12.636 16.5444 12.647C16.5185 12.658 16.4511 12.6774 16.3901 12.6183L15.9883 12.2296C15.7907 12.0383 15.5312 11.9374 15.2556 11.9401C14.9807 11.9447 14.7238 12.0559 14.5327 12.2537L13.849 12.9603C13.8429 12.9555 13.8392 12.9489 13.8325 12.9448C12.5044 12.1187 10.972 11.6822 9.40083 11.6822C4.76855 11.6822 1 15.4508 1 20.083C1 20.2007 1.09537 20.296 1.21297 20.296C1.33058 20.296 1.42595 20.2008 1.42595 20.083C1.42595 15.6856 5.0035 12.1081 9.40086 12.1081C10.8924 12.1081 12.347 12.5226 13.6075 13.3066C13.6107 13.3086 13.6145 13.3086 13.6178 13.3104C13.5682 13.4351 13.5433 13.5694 13.5456 13.7076C13.5501 13.9825 13.6616 14.2392 13.8592 14.4303L14.1254 14.688C14.1875 14.7481 14.169 14.8169 14.1582 14.8435C14.1474 14.8703 14.1129 14.9325 14.0262 14.9325H13.6558C13.0883 14.9325 12.6266 15.3944 12.6266 15.9619V16.9654C12.6266 17.5329 13.0883 17.9948 13.6558 17.9948H14.2148C14.2999 17.9948 14.3348 18.0555 14.3458 18.0817C14.3569 18.1077 14.3762 18.1751 14.3171 18.2363L13.9285 18.6378C13.7373 18.8354 13.6344 19.0956 13.639 19.3705C13.6435 19.6454 13.7548 19.9021 13.9524 20.0934L14.6736 20.7912C14.8712 20.9823 15.1395 21.0875 15.4063 21.0807C15.6814 21.0761 15.9381 20.9648 16.1292 20.7672L16.3868 20.501C16.4469 20.4389 16.516 20.4574 16.5424 20.468C16.5692 20.4788 16.6314 20.5133 16.6314 20.6V20.9704C16.6314 21.538 17.0933 21.9999 17.6608 21.9999H18.6642C19.2318 21.9999 19.6937 21.538 19.6937 20.9704V20.4116C19.6937 20.3266 19.7544 20.2916 19.7804 20.2806C19.8062 20.2694 19.8736 20.2505 19.9351 20.3093L20.3367 20.6978C20.5343 20.8889 20.7893 21.0012 21.0694 20.9873C21.3443 20.9827 21.6009 20.8715 21.7923 20.6739L22.49 19.9526C22.6811 19.7551 22.7841 19.4949 22.7795 19.22C22.7749 18.945 22.6637 18.6884 22.4661 18.4971L22.1999 18.2396C22.1375 18.1793 22.156 18.1107 22.1668 18.0838C22.1776 18.057 22.2122 17.9948 22.2989 17.9948H22.6693C23.2368 17.9948 23.6987 17.533 23.6987 16.9654V15.962C23.6987 15.3944 23.2368 14.9325 22.6692 14.9325ZM23.2728 16.9654C23.2728 17.2982 23.002 17.569 22.6692 17.569H22.2988C22.0661 17.569 21.8592 17.7083 21.7721 17.9242C21.6847 18.1401 21.7365 18.384 21.9037 18.5458L22.1699 18.8033C22.2857 18.9154 22.351 19.0659 22.3535 19.2271C22.3562 19.3881 22.2959 19.5407 22.1838 19.6566L21.4861 20.3778C21.374 20.4936 21.2234 20.559 21.0622 20.5614C20.8984 20.5675 20.7484 20.5038 20.6328 20.3917L20.2312 20.0033C20.064 19.8417 19.8274 19.7982 19.614 19.8885C19.4004 19.9791 19.2677 20.1796 19.2677 20.4117V20.9705C19.2677 21.3033 18.997 21.5741 18.6642 21.5741H17.6608C17.328 21.5741 17.0573 21.3033 17.0573 20.9705V20.6001C17.0573 20.3674 16.9179 20.1605 16.702 20.0734C16.6326 20.0451 16.56 20.0313 16.488 20.0313C16.3375 20.0313 16.1902 20.0916 16.0806 20.205L15.823 20.4712C15.7109 20.587 15.5605 20.6523 15.3994 20.6548C15.3958 20.655 15.3925 20.655 15.3892 20.655C15.2318 20.655 15.083 20.5949 14.9697 20.4851L14.2485 19.7874C14.1326 19.6753 14.0673 19.5247 14.0648 19.3635C14.0621 19.2026 14.1225 19.0499 14.2345 18.9341L14.6232 18.5325C14.7846 18.3657 14.8285 18.1292 14.738 17.9156C14.6473 17.7019 14.4469 17.569 14.2148 17.569H13.6557C13.323 17.569 13.0524 17.2982 13.0524 16.9654V15.962C13.0524 15.6292 13.323 15.3584 13.6557 15.3584H14.0261C14.2588 15.3584 14.4655 15.2191 14.5529 15.0034C14.6403 14.7878 14.5887 14.5438 14.4215 14.3818L14.1553 14.1241C14.0392 14.012 13.9741 13.8617 13.9714 13.7005C13.9687 13.5394 14.029 13.3867 14.1411 13.2709L14.8388 12.5498C14.951 12.434 15.1015 12.3687 15.2627 12.366C15.4226 12.3535 15.5763 12.4236 15.6921 12.5357L16.0939 12.9243C16.2607 13.0859 16.4974 13.1296 16.7108 13.0391C16.9246 12.9485 17.0573 12.748 17.0573 12.5159V11.9569C17.0573 11.6242 17.328 11.3536 17.6608 11.3536H18.6642C18.997 11.3536 19.2677 11.6242 19.2677 11.9569V12.3274C19.2677 12.5602 19.4071 12.7669 19.6229 12.8542C19.839 12.9413 20.0828 12.8894 20.2443 12.7226L20.502 12.4564C20.7333 12.217 21.1163 12.211 21.3553 12.4422L22.0765 13.14C22.1924 13.2521 22.2577 13.4026 22.2602 13.5638C22.2629 13.7248 22.2025 13.8774 22.0905 13.9933L21.702 14.3951C21.5406 14.5618 21.4965 14.7981 21.5872 15.0119C21.6776 15.2257 21.8783 15.3584 22.1104 15.3584H22.6692C23.002 15.3584 23.2728 15.6292 23.2728 15.9619V16.9654Z" fill="white"/>
<path d="M22.6692 14.9325H22.1104C22.0254 14.9325 21.9904 14.8718 21.9792 14.8458C21.9682 14.8196 21.9488 14.7525 22.0081 14.6913L22.3966 14.2895C22.5877 14.0919 22.6907 13.8318 22.6861 13.5568C22.6815 13.2819 22.5703 13.0253 22.3727 12.834L21.6515 12.1362C21.2434 11.7417 20.5902 11.7525 20.1959 12.1603L19.9382 12.4265C19.8779 12.4887 19.8091 12.4702 19.7827 12.4594C19.7559 12.4486 19.6937 12.4141 19.6937 12.3275V11.957C19.6937 11.3894 19.2318 10.9277 18.6642 10.9277H17.6608C17.0933 10.9277 16.6314 11.3894 16.6314 11.957V12.516C16.6314 12.601 16.5706 12.636 16.5444 12.647C16.5185 12.658 16.4511 12.6774 16.3901 12.6183L15.9883 12.2296C15.7907 12.0383 15.5312 11.9374 15.2556 11.9401C14.9807 11.9447 14.7238 12.0559 14.5327 12.2537L13.849 12.9603C13.8429 12.9555 13.8392 12.9489 13.8325 12.9448C12.5044 12.1187 10.972 11.6822 9.40083 11.6822C4.76855 11.6822 1 15.4508 1 20.083C1 20.2007 1.09537 20.296 1.21297 20.296C1.33058 20.296 1.42595 20.2008 1.42595 20.083C1.42595 15.6856 5.0035 12.1081 9.40086 12.1081C10.8924 12.1081 12.347 12.5226 13.6075 13.3066C13.6107 13.3086 13.6145 13.3086 13.6178 13.3104C13.5682 13.4351 13.5433 13.5694 13.5456 13.7076C13.5501 13.9825 13.6616 14.2392 13.8592 14.4303L14.1254 14.688C14.1875 14.7481 14.169 14.8169 14.1582 14.8435C14.1474 14.8703 14.1129 14.9325 14.0262 14.9325H13.6558C13.0883 14.9325 12.6266 15.3944 12.6266 15.9619V16.9654C12.6266 17.5329 13.0883 17.9948 13.6558 17.9948H14.2148C14.2999 17.9948 14.3348 18.0555 14.3458 18.0817C14.3569 18.1077 14.3762 18.1751 14.3171 18.2363L13.9285 18.6378C13.7373 18.8354 13.6344 19.0956 13.639 19.3705C13.6435 19.6454 13.7548 19.9021 13.9524 20.0934L14.6736 20.7912C14.8712 20.9823 15.1395 21.0875 15.4063 21.0807C15.6814 21.0761 15.9381 20.9648 16.1292 20.7672L16.3868 20.501C16.4469 20.4389 16.516 20.4574 16.5424 20.468C16.5692 20.4788 16.6314 20.5133 16.6314 20.6V20.9704C16.6314 21.538 17.0933 21.9999 17.6608 21.9999H18.6642C19.2318 21.9999 19.6937 21.538 19.6937 20.9704V20.4116C19.6937 20.3266 19.7544 20.2916 19.7804 20.2806C19.8062 20.2694 19.8736 20.2505 19.9351 20.3093L20.3367 20.6978C20.5343 20.8889 20.7893 21.0012 21.0694 20.9873C21.3443 20.9827 21.6009 20.8715 21.7923 20.6739L22.49 19.9526C22.6811 19.7551 22.7841 19.4949 22.7795 19.22C22.7749 18.945 22.6637 18.6884 22.4661 18.4971L22.1999 18.2396C22.1375 18.1793 22.156 18.1107 22.1668 18.0838C22.1776 18.057 22.2122 17.9948 22.2989 17.9948H22.6693C23.2368 17.9948 23.6987 17.533 23.6987 16.9654V15.962C23.6987 15.3944 23.2368 14.9325 22.6692 14.9325ZM23.2728 16.9654C23.2728 17.2982 23.002 17.569 22.6692 17.569H22.2988C22.0661 17.569 21.8592 17.7083 21.7721 17.9242C21.6847 18.1401 21.7365 18.384 21.9037 18.5458L22.1699 18.8033C22.2857 18.9154 22.351 19.0659 22.3535 19.2271C22.3562 19.3881 22.2959 19.5407 22.1838 19.6566L21.4861 20.3778C21.374 20.4936 21.2234 20.559 21.0622 20.5614C20.8984 20.5675 20.7484 20.5038 20.6328 20.3917L20.2312 20.0033C20.064 19.8417 19.8274 19.7982 19.614 19.8885C19.4004 19.9791 19.2677 20.1796 19.2677 20.4117V20.9705C19.2677 21.3033 18.997 21.5741 18.6642 21.5741H17.6608C17.328 21.5741 17.0573 21.3033 17.0573 20.9705V20.6001C17.0573 20.3674 16.9179 20.1605 16.702 20.0734C16.6326 20.0451 16.56 20.0313 16.488 20.0313C16.3375 20.0313 16.1902 20.0916 16.0806 20.205L15.823 20.4712C15.7109 20.587 15.5605 20.6523 15.3994 20.6548C15.3958 20.655 15.3925 20.655 15.3892 20.655C15.2318 20.655 15.083 20.5949 14.9697 20.4851L14.2485 19.7874C14.1326 19.6753 14.0673 19.5247 14.0648 19.3635C14.0621 19.2026 14.1225 19.0499 14.2345 18.9341L14.6232 18.5325C14.7846 18.3657 14.8285 18.1292 14.738 17.9156C14.6473 17.7019 14.4469 17.569 14.2148 17.569H13.6557C13.323 17.569 13.0524 17.2982 13.0524 16.9654V15.962C13.0524 15.6292 13.323 15.3584 13.6557 15.3584H14.0261C14.2588 15.3584 14.4655 15.2191 14.5529 15.0034C14.6403 14.7878 14.5887 14.5438 14.4215 14.3818L14.1553 14.1241C14.0392 14.012 13.9741 13.8617 13.9714 13.7005C13.9687 13.5394 14.029 13.3867 14.1411 13.2709L14.8388 12.5498C14.951 12.434 15.1015 12.3687 15.2627 12.366C15.4226 12.3535 15.5763 12.4236 15.6921 12.5357L16.0939 12.9243C16.2607 13.0859 16.4974 13.1296 16.7108 13.0391C16.9246 12.9485 17.0573 12.748 17.0573 12.5159V11.9569C17.0573 11.6242 17.328 11.3536 17.6608 11.3536H18.6642C18.997 11.3536 19.2677 11.6242 19.2677 11.9569V12.3274C19.2677 12.5602 19.4071 12.7669 19.6229 12.8542C19.839 12.9413 20.0828 12.8894 20.2443 12.7226L20.502 12.4564C20.7333 12.217 21.1163 12.211 21.3553 12.4422L22.0765 13.14C22.1924 13.2521 22.2577 13.4026 22.2602 13.5638C22.2629 13.7248 22.2025 13.8774 22.0905 13.9933L21.702 14.3951C21.5406 14.5618 21.4965 14.7981 21.5872 15.0119C21.6776 15.2257 21.8783 15.3584 22.1104 15.3584H22.6692C23.002 15.3584 23.2728 15.6292 23.2728 15.9619V16.9654Z" stroke="white" stroke-width="0.5" mask="url(#path-1-outside-1_2481_1159)"/>
<path d="M18.1624 14.6045C17.1372 14.6045 16.3032 15.4385 16.3032 16.4637C16.3032 17.489 17.1372 18.3229 18.1624 18.3229C19.1877 18.3229 20.0217 17.489 20.0217 16.4637C20.0217 15.4385 19.1877 14.6045 18.1624 14.6045ZM18.1624 17.6471C17.5101 17.6471 16.9791 17.1161 16.9791 16.4638C16.9791 15.8114 17.5101 15.2804 18.1624 15.2804C18.8148 15.2804 19.3458 15.8114 19.3458 16.4638C19.3458 17.1161 18.8148 17.6471 18.1624 17.6471Z" fill="white" stroke="white" stroke-width="0.25"/>
<path d="M9.40074 10.5275C12.0689 10.5275 14.2395 8.35692 14.2395 5.68873C14.2395 3.02055 12.069 0.85 9.40074 0.85C6.73246 0.85 4.56191 3.02054 4.56191 5.68873C4.56191 8.35692 6.73246 10.5275 9.40074 10.5275ZM9.40074 1.57591C11.6685 1.57591 13.5136 3.42102 13.5136 5.68873C13.5136 7.95644 11.6685 9.80155 9.40074 9.80155C7.13303 9.80155 5.28783 7.95644 5.28783 5.68873C5.28783 3.42102 7.13306 1.57591 9.40074 1.57591Z" fill="white" stroke="white" stroke-width="0.3"/>
</svg>