<svg width="20" height="20" viewBox="0 0 20 20" fill="none" xmlns="http://www.w3.org/2000/svg">
  <path d="M6.93156 2.32747C6.93156 1.04395 5.88728 0 4.60408 0C3.32088 0 2.27661 1.04395 2.27661 2.32747C2.27661 3.61067 3.32088 4.65462 4.60408 4.65462C5.88728 4.65462 6.93156 3.61068 6.93156 2.32747Z" fill="white" />
  <path d="M0 9.73206C0 10.1002 0.29818 10.3987 0.666667 10.3987H8.54167C8.91015 10.3987 9.20833 10.1002 9.20833 9.73206C9.20833 7.21806 7.16276 5.17249 4.64909 5.17249H4.55925C2.04557 5.17249 0 7.21806 0 9.73206Z" fill="white" />
  <path d="M15.3958 9.60132C14.1126 9.60132 13.0684 10.6453 13.0684 11.9288C13.0684 13.212 14.1126 14.2559 15.3958 14.2559C16.679 14.2559 17.7233 13.212 17.7233 11.9288C17.7233 10.6453 16.679 9.60132 15.3958 9.60132Z" fill="white" />
  <path d="M15.4406 14.7737H15.3507C12.8371 14.7737 10.7915 16.8193 10.7915 19.3333C10.7915 19.7014 11.0897 19.9999 11.4582 19.9999H19.3332C19.7017 19.9999 19.9998 19.7014 19.9998 19.3333C19.9998 16.8193 17.9543 14.7737 15.4406 14.7737Z" fill="white" />
  <path d="M13.9999 1.66077H9.99992C9.63143 1.66077 9.33325 1.95927 9.33325 2.32743C9.33325 2.6956 9.63143 2.9941 9.99992 2.9941H13.9999C15.1028 2.9941 15.9999 3.89123 15.9999 4.9941V7.78577C15.9999 8.15393 16.2981 8.45243 16.6666 8.45243C17.0351 8.45243 17.3333 8.15393 17.3333 7.78577V4.9941C17.3333 3.15621 15.8378 1.66077 13.9999 1.66077Z" fill="white" />
  <path d="M5.99984 17.0058C4.89697 17.0058 3.99984 16.1087 3.99984 15.0058V12.2142C3.99984 11.846 3.70166 11.5475 3.33317 11.5475C2.96468 11.5475 2.6665 11.846 2.6665 12.2142V15.0058C2.6665 16.8437 4.16194 18.3391 5.99984 18.3391H9.05322C9.42171 18.3391 9.71989 18.0406 9.71989 17.6725C9.71989 17.3043 9.42171 17.0058 9.05322 17.0058H5.99984Z" fill="white" />
</svg>