<svg width="18" height="17" viewBox="0 0 18 17" fill="none" xmlns="http://www.w3.org/2000/svg">
  <path d="M8.53262 12.0131L8.48267 12.0132V12.0631V14.3645C8.48267 14.7884 8.13822 15.1324 7.71470 15.1324H2.63594C2.21243 15.1324 1.86797 14.7884 1.86797 14.3645V1.97798C1.86797 1.55448 2.21244 1.21001 2.63594 1.21001H7.71470C8.13820 1.21001 8.48267 1.55448 8.48267 1.97798V4.27933V4.32933H8.53267H8.94166H9.35064H9.40064V4.27933V1.97798C9.40064 1.04814 8.64454 0.292041 7.71470 0.292041H2.63594C1.70610 0.292041 0.95000 1.04814 0.95000 1.97798V14.3641C0.95000 15.2935 1.70610 16.05 2.63594 16.05H7.71470C8.64455 16.05 9.40064 15.2935 9.40064 14.3641V12.0627V12.0127H9.35064H8.94166H8.94161L8.53262 12.0131Z" fill="white" stroke="white" stroke-width="0.1" />
  <path d="M17.5282 8.20658L17.5635 8.17123L17.5282 8.13588L11.4167 2.02361L11.3313 1.93824V2.05896V5.2882H8.94176H5.18237H5.13237V5.3382V11.0047V11.0547H5.18237H8.94176H11.3313V14.2839V14.4046L11.4167 14.3193L17.5282 8.20658ZM16.2655 8.17123L12.2493 12.1878V10.1867V10.1367H12.1993H6.05034V6.20616H12.1993H12.2493V6.15616V4.15466L16.2655 8.17123Z" fill="white" stroke="white" stroke-width="0.1" />
</svg>
