<svg xmlns="http://www.w3.org/2000/svg" width="14" height="14" viewBox="0 0 14 14" fill="none">
  <g clip-path="url(#clip0_743_73685)">
    <path d="M0.118652 2.16065C0.118652 1.26194 0.849338 0.53125 1.74806 0.53125H5.82157V3.79006C5.82157 4.24069 6.18564 4.60476 6.63627 4.60476H9.89507V8.27092H4.59951C3.70079 8.27092 2.97011 9.0016 2.97011 9.90032V13.5665H1.74806C0.849338 13.5665 0.118652 12.8358 0.118652 11.9371V2.16065ZM9.89507 3.79006H6.63627V0.53125L9.89507 3.79006ZM4.59951 9.49297H5.41421C6.20091 9.49297 6.83994 10.132 6.83994 10.9187C6.83994 11.7054 6.20091 12.3444 5.41421 12.3444H5.00686V13.1591C5.00686 13.3832 4.82356 13.5665 4.59951 13.5665C4.37547 13.5665 4.19216 13.3832 4.19216 13.1591V9.90032C4.19216 9.67628 4.37547 9.49297 4.59951 9.49297ZM5.41421 11.5297C5.75282 11.5297 6.02524 11.2573 6.02524 10.9187C6.02524 10.5801 5.75282 10.3077 5.41421 10.3077H5.00686V11.5297H5.41421ZM7.85832 9.49297H8.67302C9.3477 9.49297 9.89507 10.0403 9.89507 10.715V12.3444C9.89507 13.0191 9.3477 13.5665 8.67302 13.5665H7.85832C7.63428 13.5665 7.45097 13.3832 7.45097 13.1591V9.90032C7.45097 9.67628 7.63428 9.49297 7.85832 9.49297ZM8.67302 12.7518C8.89707 12.7518 9.08037 12.5685 9.08037 12.3444V10.715C9.08037 10.491 8.89707 10.3077 8.67302 10.3077H8.26567V12.7518H8.67302ZM10.7098 9.90032C10.7098 9.67628 10.8931 9.49297 11.1171 9.49297H12.3392C12.5632 9.49297 12.7465 9.67628 12.7465 9.90032C12.7465 10.1244 12.5632 10.3077 12.3392 10.3077H11.5245V11.1224H12.3392C12.5632 11.1224 12.7465 11.3057 12.7465 11.5297C12.7465 11.7538 12.5632 11.9371 12.3392 11.9371H11.5245V13.1591C11.5245 13.3832 11.3412 13.5665 11.1171 13.5665C10.8931 13.5665 10.7098 13.3832 10.7098 13.1591V9.90032Z" fill="#363157"/>
  </g>
  <defs>
    <clipPath id="clip0_743_73685">
      <rect width="13.0352" height="13.0352" fill="white" transform="translate(0.118652 0.53125)"/>
    </clipPath>
  </defs>
</svg>