<svg width="25" height="25" viewBox="0 0 13 17" fill="none" xmlns="http://www.w3.org/2000/svg">
<path d="M3.73378 16.2416C4.1791 15.8616 4.62613 15.4816 5.07145 15.0999C5.77984 14.4947 6.48994 13.8895 7.19833 13.2843C7.35995 13.1467 7.51985 13.0092 7.68147 12.8716C7.47859 12.8716 7.2757 12.8716 7.07281 12.8716C7.44764 13.2516 7.82246 13.6333 8.19729 14.0133C8.25059 14.0683 8.30561 14.1233 8.35891 14.1784C8.52913 14.3503 8.79391 14.3331 8.96757 14.1784C9.40085 13.7898 9.83414 13.4029 10.2674 13.0143C10.9569 12.3954 11.6481 11.7781 12.3376 11.1591C12.4957 11.0181 12.6539 10.8754 12.8121 10.7344C12.9806 10.5831 12.9772 10.2771 12.8121 10.1258C12.6333 9.96071 12.384 9.96587 12.2034 10.1258C11.7702 10.5144 11.3369 10.9012 10.9036 11.2898C10.2141 11.9088 9.52293 12.526 8.83346 13.145C8.67528 13.286 8.51709 13.4287 8.35891 13.5697C8.5618 13.5697 8.76468 13.5697 8.96757 13.5697C8.59275 13.1897 8.21792 12.808 7.8431 12.428C7.7898 12.373 7.73477 12.318 7.68147 12.263C7.50954 12.0876 7.24991 12.1134 7.07281 12.263C6.62749 12.6429 6.18045 13.0229 5.73513 13.4046C5.02675 14.0099 4.31665 14.6151 3.60826 15.2203C3.44664 15.3579 3.28674 15.4954 3.12511 15.633C2.95318 15.7791 2.96349 16.092 3.12511 16.2416C3.30737 16.4101 3.5498 16.3981 3.73378 16.2416Z" fill="white"/>
<path d="M10.1704 10.8597C10.8513 10.8597 11.5339 10.8597 12.2148 10.8597C12.3111 10.8597 12.4091 10.8597 12.5054 10.8597C12.3626 10.717 12.2182 10.5726 12.0755 10.4298C12.0755 11.1107 12.0755 11.7933 12.0755 12.4742C12.0755 12.5705 12.0755 12.6685 12.0755 12.7648C12.0755 12.99 12.2732 13.2049 12.5054 13.1946C12.7375 13.1843 12.9352 13.0055 12.9352 12.7648C12.9352 12.0839 12.9352 11.4013 12.9352 10.7204C12.9352 10.6241 12.9352 10.5261 12.9352 10.4298C12.9352 10.1977 12.7375 10 12.5054 10C11.8245 10 11.1419 10 10.461 10C10.3647 10 10.2667 10 10.1704 10C9.9452 10 9.73028 10.1977 9.74059 10.4298C9.75091 10.6637 9.92972 10.8597 10.1704 10.8597Z" fill="white"/>
<path d="M6.93131 2.32747C6.93131 1.04395 5.88704 0 4.60384 0C3.32064 0 2.27637 1.04395 2.27637 2.32747C2.27637 3.61067 3.32064 4.65462 4.60384 4.65462C5.88704 4.65462 6.93131 3.61068 6.93131 2.32747ZM3.6097 2.32747C3.6097 1.7793 4.05566 1.33333 4.60384 1.33333C5.15202 1.33333 5.59798 1.7793 5.59798 2.32747C5.59798 2.87533 5.15201 3.32129 4.60384 3.32129C4.05567 3.32129 3.6097 2.87533 3.6097 2.32747Z" fill="white"/>
<path d="M0 9.73242C0 10.1006 0.29818 10.3991 0.666667 10.3991H8.54167C8.91015 10.3991 9.20833 10.1006 9.20833 9.73243C9.20833 7.21843 7.16276 5.17285 4.64909 5.17285H4.55925C2.04557 5.17286 0 7.21843 0 9.73242ZM4.55925 6.50619H4.64909C6.19923 6.50619 7.49805 7.60548 7.80599 9.06576H1.40235C1.71029 7.60547 3.00911 6.50619 4.55925 6.50619Z" fill="white"/>
</svg>
